<?xml version="1.0" encoding="utf-8"?>
<!-- Generator: Adobe Illustrator 26.5.0, SVG Export Plug-In . SVG Version: 6.00 Build 0)  -->
<svg version="1.1" id="a" xmlns="http://www.w3.org/2000/svg" xmlns:xlink="http://www.w3.org/1999/xlink" x="0px" y="0px"
	 viewBox="0 0 414.8 309.6" style="enable-background:new 0 0 414.8 309.6;" xml:space="preserve">
<style type="text/css">
	.st0{fill-rule:evenodd;clip-rule:evenodd;fill:#231815;}
	.st1{fill-rule:evenodd;clip-rule:evenodd;fill:#E60012;}
</style>
<path class="st0" d="M104.2,221.1c-0.3,0-77.2,0.4-89,0.4c-49.8,104.4,30.2,88.3,134.8,85.7c50.8-1.3,71.1-25.8,92.5-91.4
	c16.8-51.4-20.4-61.4-54-74.7l4.6-15.2c1,0,54.5-0.2,91.2-0.2c37-91.8-61.1-79.6-67.3-78.7l68.5-46.6L202.4,0L42.6,106.7l-21.2,74.6
	l44.1-30c5,17,27.9,25.5,50.2,34L104.2,221.1"/>
<path class="st0" d="M280.9,300.8l40.3-131.4c4.6-11.6,21.2-18.5,28.2-15.9l-46.1,147.3l61.7,0h8.1c0,0,11-38.7,13.2-47.4
	c9.2-35.2-9.2-41.5-9.2-41.5v-1.9c0,0,16.4,3,29.4-20.3c8.6-15.5,20.2-52.2-21.4-52c-7.8,0-114.6,0.1-114.6,0.1l-51.4,163.1
	L280.9,300.8"/>
<polyline class="st1" points="285.5,0.4 202.4,0 42.6,106.7 21.4,181.3 143.7,98 75.9,309.1 152.3,261.9 216.7,47.2 285.5,0.4 "/>
<path class="st0" d="M216.7,47.1l-24.1,78.9c0,0,54.5-0.2,91.7-0.2C322.5,31,216.7,47.1,216.7,47.1"/>
<path class="st0" d="M161.5,231.2l81.1-15.4c27.6-84.7-91.6-57-99.2-117c-11,7.6-77.8,52.4-77.8,52.4
	C76.5,189.2,177.8,183.7,161.5,231.2"/>
</svg>
