
<svg version="1.1" id="レイヤー_1" xmlns="http://www.w3.org/2000/svg" xmlns:xlink="http://www.w3.org/1999/xlink" x="0px"
	 y="0px" viewBox="0 0 21 27" style="enable-background:new 0 0 21 27;" xml:space="preserve">
<style type="text/css">
	.st0{fill:#D6B762;}
</style>
<g>
	<path class="st0" d="M2.03,1.15c-1.85,1.2-2.21,4.95-1.51,8c0.54,2.38,1.7,5.57,3.65,8.57c1.83,2.83,4.39,5.36,6.34,6.83
		c2.5,1.88,6.07,3.08,7.92,1.88c0.93-0.61,2.32-2.26,2.39-2.56c0,0-0.81-1.26-0.99-1.53l-2.73-4.21c-0.2-0.31-1.48-0.03-2.12,0.34
		c-0.87,0.49-1.68,1.82-1.68,1.82c-0.6,0.35-1.1,0-2.15-0.48c-1.29-0.59-2.73-2.43-3.88-4.1c-1.05-1.73-2.14-3.8-2.16-5.22
		C5.09,9.34,4.98,8.75,5.54,8.34c0,0,1.54-0.19,2.35-0.79c0.6-0.44,1.38-1.49,1.18-1.8L6.33,1.54C6.15,1.27,5.34,0.01,5.34,0.01
		C5.04-0.05,2.96,0.54,2.03,1.15z"/>
</g>
</svg>
