<?xml version="1.0" encoding="utf-8"?>
<!-- Generator: Adobe Illustrator 27.0.0, SVG Export Plug-In . SVG Version: 6.00 Build 0)  -->
<svg version="1.1" id="レイヤー_1" xmlns="http://www.w3.org/2000/svg" xmlns:xlink="http://www.w3.org/1999/xlink" x="0px"
	 y="0px" viewBox="0 0 457.6 428.1" style="enable-background:new 0 0 457.6 428.1;" xml:space="preserve">
<style type="text/css">
	.st0{fill-rule:evenodd;clip-rule:evenodd;fill:#001C4F;}
</style>
<path class="st0" d="M115.6,280.3c-0.3,0-84.6,0.4-97.5,0.4c-54.6,114.4,33.1,96.8,147.7,93.9c55.7-1.4,77.9-28.3,101.4-100.2
	c18.4-56.3-22.4-67.3-59.2-81.9l5-16.7c1.1,0,59.7-0.2,99.9-0.2c40.5-100.6-67-87.2-73.7-86.2l75.1-51.1L223.2,38L48.1,154.9
	l-23.2,81.7l48.3-32.9c5.5,18.6,30.6,27.9,55,37.3L115.6,280.3"/>
<path class="st0" d="M309.3,367.6l44.2-144c5-12.7,23.2-20.3,30.9-17.4l-50.5,161.4h67.6h8.9c0,0,12.1-42.4,14.5-51.9
	c10.1-38.6-10.1-45.5-10.1-45.5v-2.1c0,0,18,3.3,32.2-22.2c9.4-17,22.1-57.2-23.4-57c-8.5,0-125.6,0.1-125.6,0.1l-56.3,178.7
	L309.3,367.6"/>
<polyline class="st0" points="314.3,38.4 223.2,38 48.1,154.9 24.9,236.7 158.9,145.4 84.6,376.7 168.3,325 238.9,89.7 314.3,38.4 
	"/>
<path class="st0" d="M238.9,89.6l-26.4,86.5c0,0,59.7-0.2,100.5-0.2C354.8,72,238.9,89.6,238.9,89.6"/>
<path class="st0" d="M178.4,291.3l88.9-16.9c30.2-92.8-100.4-62.5-108.7-128.2c-12.1,8.3-85.3,57.4-85.3,57.4
	C85.3,245.3,196.3,239.3,178.4,291.3"/>
</svg>
