<svg xmlns="http://www.w3.org/2000/svg" viewBox="0 0 20 20"><defs><style>.a{fill:#fff;}</style></defs><title>icon_アートボード 1</title><path class="a" d="M18.52,8.7a3.46,3.46,0,0,0-.54.74c-.1.2-.18.29-.23.29a1.08,1.08,0,0,1-.25-.09A17.62,17.62,0,0,1,9.86,3.45,19.4,19.4,0,0,1,2.54,9.73a1,1,0,0,1-.27.11S2.14,9.75,2,9.58a2.31,2.31,0,0,0-.55-.66A18.42,18.42,0,0,0,6.16,6,14.65,14.65,0,0,0,8.88,2.87a3.7,3.7,0,0,0,.47-1.06c.42.07.8.14,1.15.23.17,0,.25.13.25.22a.25.25,0,0,1-.15.21l-.16.13A16.78,16.78,0,0,0,18.52,8.7Z"/><path class="a" d="M10.24,10.7a20.18,20.18,0,0,1,4.59,1.94c.09,0,.13.11.13.17a.44.44,0,0,1,0,.1c-.15.31-.28.57-.4.78s-.1.11-.15.11a.4.4,0,0,1-.16-.06,16.13,16.13,0,0,0-4-1.85v3.42c0,.51,0,1.39,0,2.67a.18.18,0,0,1-.2.19l-.42,0-.42,0C9.09,18.17,9,18.1,9,18c0-1,.05-1.86.05-2.67V8.4A13.75,13.75,0,0,0,9,6.51a10.81,10.81,0,0,1,1.27.15c.13,0,.2.12.2.22a.64.64,0,0,1-.07.24,3.17,3.17,0,0,0-.13,1.21Z"/></svg>