<?xml version="1.0" encoding="utf-8"?>
<!-- Generator: Adobe Illustrator 25.3.1, SVG Export Plug-In . SVG Version: 6.00 Build 0)  -->
<svg version="1.1" id="レイヤー_1" xmlns="http://www.w3.org/2000/svg" xmlns:xlink="http://www.w3.org/1999/xlink" x="0px"
	 y="0px" viewBox="0 0 182 52.7" style="enable-background:new 0 0 182 52.7;" xml:space="preserve">
<style type="text/css">
	.st0{enable-background:new    ;}
	.st1{fill:#FFFFFF;}
	.st2{fill:#6AA76B;}
	.st3{fill:#D8321D;}
	.st4{fill:#135E34;}
</style>
<g class="st0">
	<path d="M77.5,18v0.8H65.6V18H77.5z"/>
	<path d="M82.4,22h-0.6v-3.2c-0.2,0-0.2,0-1,0.1c0,1.3,0,3.7-1,5.5l-0.6-0.5c0.2-0.5,0.9-1.8,0.9-4.9c-0.2,0-0.7,0.1-0.9,0.1
		l-0.1-0.7c0.3,0,0.5,0,1-0.1V14h1.4c0.1-0.3,0.4-1.2,0.4-1.4l0.7,0.1c-0.1,0.2-0.4,1.1-0.5,1.3h2v3.9c0.1,0,0.5-0.1,0.5-0.1v0.6
		c-0.1,0-0.5,0.1-0.5,0.1v5.2c0,0.7-0.4,0.8-0.9,0.8h-1.2l-0.1-0.8l1.2,0c0.3,0,0.4-0.1,0.4-0.3v-4.8c-0.2,0-0.9,0.1-1.1,0.1V22z
		 M80.8,18.3c1.4-0.1,1.8-0.2,2.7-0.3v-3.4h-2.7V18.3z M82.3,17.4c-0.1-0.2-0.4-1.1-0.9-2l0.6-0.3c0.4,0.6,0.7,1.2,1,2L82.3,17.4z
		 M90.9,24.5c-1.8-0.6-2.6-1.3-3.1-1.8C86.9,23.5,86,24,85,24.4l-0.5-0.6c1.7-0.7,2.3-1.3,2.7-1.6c-1.1-1.2-1.5-2.5-1.7-3.1l0.6-0.2
		c0.5,1.6,1.2,2.4,1.6,2.8c1.1-1.2,1.5-2.4,1.8-3H85V18h5.3v0.6c-0.7,2-1.5,3-2.1,3.6c0.9,0.8,1.9,1.2,3,1.5L90.9,24.5z M89.4,13v3
		c0,0.3,0.1,0.3,0.3,0.3h0.4c0.4,0,0.4,0,0.5-1.4l0.6,0.2C91.2,16.6,91,17,90.2,17h-0.8c-0.4,0-0.7-0.1-0.7-0.9v-2.4h-2.3
		c0,2.5-0.8,3.4-1.2,3.8l-0.5-0.5c1-1,1-2,1-3.9H89.4z"/>
	<path d="M97.5,20.3c-0.6-0.4-1.5-1.6-1.7-1.8v6.1h-0.7v-5.6c-1,0.9-1.6,1.3-2,1.5l-0.3-0.7c2.2-1.2,3.7-3,4.2-4.4h-4v-0.6h2.2v-2.2
		h0.7v2.2h1.9v0.6c-0.3,0.9-1,1.8-1.5,2.5c0.8,0.9,1,1.1,1.9,1.9L97.5,20.3z M101.5,12.6v3.8h3v0.7h-3v6.3h3.3V24h-7.4v-0.6h3.4
		v-6.3H98v-0.7h2.7v-3.8H101.5z"/>
	<path d="M117.9,13.2v11.3h-0.8V24h-9.4v0.5H107V13.2H117.9z M107.7,13.8v9.5h9.4v-9.5H107.7z M114.7,21.7c0,0.8-0.3,0.9-0.9,0.9
		h-1.7l-0.2-0.8l1.8,0c0.3,0,0.3-0.2,0.3-0.3v-4.6h-5.8v-0.6h5.8v-1.9h0.7v1.9h1.8v0.6h-1.8V21.7z M109.7,17.8
		c0.9,0.9,1.6,1.9,2.2,2.8l-0.6,0.4c-0.7-1.3-1.8-2.5-2.1-2.8L109.7,17.8z"/>
	<path d="M122.3,18.1c-0.8-0.8-1.4-1.1-2.2-1.5l0.4-0.6c0.9,0.5,1.5,0.8,2.3,1.5L122.3,18.1z M120.2,23.9c1-1.3,2-3.1,2.7-4.7
		l0.6,0.5c-0.6,1.4-1.7,3.6-2.6,4.8L120.2,23.9z M123,14.8c-0.5-0.4-1.5-1.1-2.4-1.5l0.4-0.6c1.1,0.5,2.1,1.2,2.4,1.5L123,14.8z
		 M129.4,20.1c0.7,0.7,1.4,1.6,2.8,4l-0.7,0.4c-0.1-0.3-0.2-0.6-0.6-1.2c-1.6,0.3-6.1,0.6-7.3,0.6l-0.1-0.7c0.6,0,0.7,0,0.9,0
		c0.1-0.2,1.1-1.9,2.1-4.5h-2.9v-0.7h3.9v-2.8h-3.3v-0.7h3.3v-2.1h0.7v2.1h3.6v0.7h-3.6v2.8h4v0.7h-4.9c-0.7,1.6-1.3,3.1-2.1,4.5
		c4.2-0.2,4.6-0.3,5.4-0.4c-0.7-1-1-1.6-1.7-2.3L129.4,20.1z"/>
	<path d="M140.2,12.6v1.6c0,1.8,0.5,4.3,1.4,6c1,1.7,2.6,2.9,4.3,3.7l-0.6,0.7c-3.2-1.9-4.9-3.8-5.5-7.8c-0.3,2.1-1.2,5.6-5.8,7.7
		l-0.5-0.7c1.6-0.8,3.6-2,4.6-4c0.8-1.6,1.2-4,1.2-5.6v-1.6H140.2z"/>
</g>
<g class="st0">
	<path d="M77.6,33.6v15.8h-1.5v-0.9h-10v0.9h-1.5V33.6H77.6z M66.2,40.2h10V35h-10V40.2z M66.2,47h10v-5.4h-10V47z"/>
</g>
<g class="st0">
	<path d="M88.2,35.9v-3.2h1.5v3.2h7.6v1.4h-6.8c1.7,3.7,4.4,6.1,7,7.6l-0.9,1.5c-3.9-2.8-5.5-5.2-6.9-8.1v6.4h3.8v1.4h-3.8v3.2h-1.5
		v-3.2h-3.8v-1.4h3.8v-6.4c-0.6,1.3-2.3,4.8-6.9,8l-0.9-1.4c3.3-2.1,5.4-4.4,7-7.7h-6.8v-1.4H88.2z"/>
</g>
<g class="st0">
	<path d="M102.3,43.7c0,1.8-0.1,3.6,4.2,3.6c2.4,0,4.2-0.3,4.2-2.8c0-1-0.1-2.7-3.2-2.7h-2.2v-1.5h2.3c1.1,0,3,0,3-2.4
		c0-2.1-1.4-2.6-3.7-2.6c-3.8,0-4.2,1.4-4.2,3h-1.8c0.1-3.1,1.4-4.6,6-4.6c1.6,0,5.5,0,5.5,4c0,2.7-1.7,3.2-2.2,3.3
		c0.6,0.2,2.4,0.8,2.4,3.6c0,4.2-3.7,4.4-5.7,4.4c-4.8,0-6.2-1.4-6.2-5.2H102.3z"/>
</g>
<g class="st0">
	<path d="M124,33.8c3,0,4.5,1.3,4.5,4.5c0,3.6-1.7,4.6-4.7,4.6h-5.8v5.8h-1.8v-15H124z M118.1,35.5v5.9h5.7c1.7,0,2.9-0.3,2.9-2.9
		c0-2.6-1.2-2.9-2.9-2.9H118.1z"/>
</g>
<g class="st0">
	<path d="M134.2,33.8v13.3h8.1v1.7h-10v-15H134.2z"/>
</g>
<g class="st0">
	<path d="M147,32.7v4.2h1.7v1.4H147v11.1h-1.5V38.3h-1.6v-1.4h1.6v-4.2H147z M153.6,41.6c0,1.7-0.1,5.9-0.6,6.9
		c-0.4,0.8-0.9,0.9-1.5,0.9h-1.3L150,48l0.9,0c0.4,0,0.6,0,0.8-0.5c0.3-0.7,0.5-4,0.5-4.6h-1.4c-0.3,2.5-0.8,4.6-2.4,6.5l-1.1-1
		c1.6-1.9,1.9-3.5,2.1-5.5H148v-1.3h1.6c0-0.6,0.1-1,0.1-1.4h1.4c0,0.5,0,0.8-0.1,1.4H153.6z M159.5,34.2c-0.2,4-0.3,5.3-2.4,5.3
		h-1.9l-0.3-1.5l2,0c0.8,0,1,0,1.2-2.6h-3.6c-0.8,2.1-2.3,3.5-4.8,4.5l-0.9-1.2c1.3-0.5,3.2-1.3,4.1-3.3h-4v-1.3h4.4
		c0.1-0.6,0.2-1.1,0.2-1.5h1.5c-0.1,0.7-0.1,1-0.2,1.5H159.5z M160.2,41.6c-0.1,4.6-0.1,6.5-0.7,7.3c-0.3,0.4-0.8,0.5-1.3,0.5h-1.4
		l-0.3-1.4l1,0c0.7,0,0.8-0.2,0.9-0.6c0.1-0.3,0.3-1.9,0.3-4.5h-1.5c-0.3,2.8-0.9,4.7-2.7,6.5l-1.1-0.9c2-1.9,2.3-3.7,2.5-5.6h-1.4
		v-1.3h1.5c0-0.5,0-0.8,0-1.5h1.4c0,0.8,0,1.1,0,1.5H160.2z"/>
	<path d="M175.9,39h-9.5v-1c-1.6,1-2.6,1.4-3.2,1.7l-0.7-1.5c5.4-2.1,7.4-5,7.9-5.7h1.6c1.9,2.5,4.7,4.7,7.9,5.8l-0.8,1.4
		c-0.8-0.4-1.8-0.8-3.1-1.7V39z M174.3,43.3c1.9,1.9,3,3.2,4.4,5.3l-1.3,0.9c-0.3-0.5-0.5-0.8-0.9-1.4c-3,0.4-10.4,0.8-13.1,0.8
		l-0.2-1.5h2.5c1.1-1.9,1.8-3.6,2.2-4.7H163v-1.4h16.1v1.4h-9.4c-0.4,1-1.2,2.6-2.3,4.6c0.5,0,2.5-0.1,2.8-0.1
		c2.2-0.1,4.1-0.3,5.4-0.4c-0.2-0.2-1.1-1.4-2.5-2.8L174.3,43.3z M175.3,37.7c-2.5-1.8-3.6-3.1-4.2-3.9c-1.1,1.6-2.7,2.8-4.2,3.9
		H175.3z"/>
</g>
<polygon class="st1" points="2.5,48.8 29,2.9 55.5,48.8 "/>
<path class="st2" d="M29,5.7l24,41.7H5L29,5.7 M29,0L0,50.2h58L29,0z"/>
<circle class="st3" cx="28.9" cy="21.8" r="4.9"/>
<polygon class="st4" points="43.5,30.9 14.5,30.9 3.3,50.2 54.8,50.2 "/>
<path class="st1" d="M18.8,43c0,0.4,0.2,0.7,0.4,1c0.3,0.3,0.7,0.4,1.1,0.4c0.4,0,0.8-0.1,1.1-0.4c0.4-0.4,0.4-1.1,0-1.5
	c0,0-0.1-0.1-0.1-0.1c-0.3-0.2-0.6-0.3-1-0.3c-0.2,0-0.3,0-0.5,0v-1.7c0.4,0.1,0.8,0,1.1-0.2c0.2-0.2,0.3-0.4,0.4-0.7
	c0-0.3-0.1-0.5-0.3-0.7c-0.2-0.2-0.5-0.3-0.8-0.3c-0.3,0-0.6,0.1-0.8,0.2c-0.2,0.2-0.4,0.5-0.4,0.8h-2.6c0.1-0.8,0.4-1.6,1.1-2.2
	c0.8-0.7,1.8-1,2.9-0.9c1,0,1.9,0.2,2.7,0.8c0.6,0.5,0.9,1.1,0.9,1.8c0,0.4-0.1,0.8-0.3,1.2c-0.2,0.3-0.5,0.6-0.8,0.7
	c0.5,0.2,1,0.5,1.3,0.9c0.3,0.4,0.5,0.9,0.5,1.4c0,0.8-0.4,1.6-1,2.1c-0.9,0.7-2.1,1.1-3.2,1c-1.1,0-2.2-0.3-3.1-1
	C16.5,44.8,16,44,15.9,43H18.8z"/>
<path class="st1" d="M28.2,42.8v3h-2.8v-9.1h4.5c1-0.1,2,0.2,2.8,0.8c0.7,0.5,1.1,1.4,1,2.2c0.1,0.9-0.3,1.7-1,2.2
	c-0.8,0.6-1.7,0.9-2.7,0.8H28.2z M28.2,40.9h0.9c0.4,0,0.8-0.1,1.2-0.3c0.3-0.2,0.4-0.5,0.4-0.8c0-0.3-0.1-0.6-0.3-0.8
	c-0.4-0.2-0.8-0.4-1.2-0.3h-1L28.2,40.9z"/>
<path class="st1" d="M37.2,36.7v7.1h5.4v2h-8.2v-9.1H37.2z"/>
</svg>
