<?xml version="1.0" encoding="UTF-8"?><svg id="a" xmlns="http://www.w3.org/2000/svg" viewBox="0 0 368.78 148.7"><rect width="368.78" height="148.7" style="fill:#fff;"/><g><path d="M37.51,64.2v3.78h-10.3v-3.78h10.3Zm.7-.1h-.7v-4.26h19.17v4.26h-9.18v7.55l3.23-1.02c0,2.46,.58,4.74,.67,5.15,.26-1.73,.38-2.78,.42-5.79h-3.81v-4.35h7.01l1.44,1.15c.1,4.9-.45,9.86-2.34,14.4,.19,.29,1.22,1.86,3.33,3.9-1.15,.96-1.95,2.14-2.91,3.9-.74-.77-1.63-1.73-2.78-3.39-1.18,1.73-2.05,2.59-2.72,3.3-.54-.64-.96-1.12-1.54-1.7v1.66h-4.13v-6.14c-1.44,.67-2.88,1.31-4.35,1.89-.06,.58-.13,.96-.48,.96-.26,0-.38-.26-.48-.51l-.8-2.37v5.79h-4.06v-.9h-1.34v1.28h-4.03v-11.58h9.44v3.39c.51-.16,.67-.19,.96-.29v-16.29Zm-1.47-4.26v3.49h-8.42v-3.49h8.42Zm0,8.99v3.42h-8.32v-3.42h8.32Zm0,4.16v3.42h-8.32v-3.42h8.32Zm-3.55,10.88v-2.91h-1.34v2.91h1.34Zm10.18-19.78h-1.31v2.14h1.31v-2.14Zm0,5.89h-1.31v2.24h1.31v-2.24Zm-1.31,9.06c.8-.32,.9-.35,1.31-.51v-2.56h-1.31v3.07Zm5.44,4.32c.16-.16,.96-1.12,1.89-2.69-.77-1.79-1.38-3.74-1.89-6.18v8.86Z" style="fill:#231815;"/><path d="M71.27,64.23v3.84h-11.97v-3.84h11.97Zm.77,4.45v-4.86h4.99v-4.51l5.82,.26c.26,0,.64,.06,.64,.45,0,.45-.45,.54-.83,.61v3.2h6.08v4.86h-8.16c0,1.06-.03,1.66-.03,2.11h7.39c0,3.71,0,10.5-.9,14.14-.35,1.47-1.15,3.94-5.95,3.94-.67,0-1.15-.06-1.6-.13-.16-1.66-.42-3.04-1.6-4.99-1.28,2.78-2.62,4.35-3.23,5.09-.9-.77-1.7-1.41-3.17-2.18v1.82h-4.67v-.99h-2.14v1.34h-4.7v-11.33h11.52v6.59c3.74-4.67,3.74-10.98,3.74-15.42h-3.2Zm-1.6-8.67v3.36h-9.82v-3.36h9.82Zm.1,8.93v3.39h-9.92v-3.39h9.92Zm0,4.26v3.39h-9.92v-3.39h9.92Zm-3.71,10.5v-2.34h-2.14v2.34h2.14Zm13.41-8.22c-.38,2.72-1.02,5.38-2.14,7.84,.8,.13,1.82,.19,2.27,.19,1.5,0,1.73-.48,1.98-1.92,.42-2.14,.38-5.12,.35-6.11h-2.46Z" style="fill:#231815;"/><path d="M107.05,67.62c3.65,1.7,8.7,4.58,11.58,7.23-.86,1.25-2.62,3.97-3.39,5.15-3.42-3.33-8.29-5.98-9.82-6.72v15.04h-6.18v-28.57l6.08,.19c.42,0,.74,0,.74,.38,0,.32-.38,.54-.64,.67v9.22l1.63-2.59Z" style="fill:#231815;"/><path d="M145.77,68.42c.58,0,1.79,0,2.69-.29l3.23,2.37c-.54,.96-2.69,5.28-3.17,6.14-1.18,2.05-5.02,8.83-14.08,12.29-.83-1.38-2.75-3.65-3.97-4.67,2.88-1.06,9.79-3.55,12.99-10.53h-18.49v-5.31h20.8Zm2.14-7.81v5.12h-19.17v-5.12h19.17Z" style="fill:#231815;"/><path d="M162.5,67.34c1.06,1.79,2.27,4.38,2.98,6.4-.45,.16-2.59,.93-4.22,1.86-.77-2.21-2.24-5.09-3.07-6.5l4.32-1.76Zm18.88,.51c.26,.06,.51,.16,.51,.42,0,.22-.19,.38-.61,.58-1.73,6.85-5.02,14.65-15.55,19.23-.77-1.12-2.34-2.91-3.52-3.97,12.13-4.58,13.47-13.6,14.01-17.82l5.15,1.57Zm-12.19-2.14c1.66,2.72,2.53,5.5,2.82,6.46-2.59,.86-3.81,1.41-4.38,1.66-.64-2.02-1.89-4.8-2.82-6.43l4.38-1.7Z" style="fill:#231815;"/><path d="M210.05,64.36c1.06,0,1.63-.26,2.02-.45l3.17,2.4c-.32,.58-.38,.7-.99,1.95-.32,.7-1.82,4.35-2.14,5.06-4.83,10.94-12.48,14.81-14.69,15.97-1.63-2.14-3.97-3.81-4.64-4.32,9.34-3.78,12.99-11.14,14.62-15.3h-8c-1.95,2.78-4.19,5.34-6.72,7.62-2.3-2.37-3.68-3.3-4.58-3.87,5.66-4.74,9.31-10.5,10.46-14.21l5.54,2.3c.19,.1,.48,.22,.48,.51,0,.45-.64,.54-.9,.58-.45,.9-.64,1.25-.9,1.76h7.26Z" style="fill:#231815;"/><path d="M227.24,79.02v-4.32h1.95c.03-.96,0-1.6-.03-2.14l3.49,.19c-.74-.99-1.15-1.34-3.3-2.91,1.12-.45,3.1-1.31,4.29-3.81h-3.97v-4.29h4.96c.06-.93,.06-1.57,.03-2.37l5.34,.32c.22,0,.45,.16,.45,.42,0,.35-.22,.48-.83,.67,0,.32,0,.38-.03,.96h7.9c0,1.95-.13,6.59-.8,8.32-.58,1.54-1.54,2.27-4.93,2.62l2.75,.22c.29,.03,.48,.13,.48,.32,0,.29-.38,.45-.67,.61v.86h4.54c-.03,1.22-.1,6.62-.16,7.71-.19,4.19-.67,6.53-5.38,6.24,.06-1.02,.03-1.82-.9-3.74-.8,1.89-1.66,2.88-2.27,3.62-1.44-1.31-2.75-1.86-3.14-1.98-.8,1.95-2.88,2.05-4.9,2.02-.16-1.28-.32-1.98-.86-3.07-.48,1.15-1.31,2.4-1.76,3.04-1.38-1.15-2.4-1.7-3.07-2.02v2.3h-5.06v-18.37h-2.08v-4.7h2.08v-6.43l5.5,.29c.32,.03,.48,.22,.48,.48,0,.42-.42,.61-.93,.8v4.86h2.53v4.7h-2.53v14.78c.58-.7,1.98-2.62,2.46-6.21h-1.66Zm5.63,0c-.13,1.41-.48,3.52-1.15,5.38,1.09,.1,1.38,0,1.6-.32,.45-.54,.64-3.39,.61-5.06h-1.06Zm7.49-6.43c-.03-.26-.32-2.27-1.73-4.19,.38,.03,1.25,.1,1.86,.1,1.25,0,1.86,0,1.89-2.46h-3.55c-1.02,2.94-3.07,5.6-5.02,6.91,.1,.1,.19,.16,.19,.38,0,.38-.29,.51-.64,.67v.7h4.64c0,4.26-.32,8.22-.61,10.34,1.76-2.21,2.18-3.42,2.5-6.11h-1.28v-4.22h1.47c0-1.28-.03-1.63-.03-2.14l.32,.03Zm3.52,6.34c-.29,2.91-.86,4.51-1.12,5.22,.32,.06,.7,.13,.96,.13,.51,0,.7-.32,.8-.77,.1-.38,.32-1.89,.35-4.58h-.99Z" style="fill:#231815;"/><path d="M263.94,83.75v1.57h-5.06v-13.57h14.33v11.58c1.31,.1,1.66,.13,1.66-.9v-17.69h-17.63v24.03h-5.47v-28.73h28.48v24.25c0,4.45-2.78,4.61-7.36,4.51-.19-1.63-.58-3.1-1.41-5.06h-7.55Zm10.05-17.76v4.32h-15.87v-4.32h15.87Zm-10.05,10.08v3.17h4.32v-3.17h-4.32Z" style="fill:#231815;"/><path d="M297.67,64.36c.1,.06,.16,.1,.22,.16v-4.48h13.98v23.58h1.31v4.58h-18.43v-4.58h3.14v-7.78c-1.57,.45-2.3,.67-3.71,1.25-.03-.48-.03-.67-.1-1.15-.22,.03-.96,.13-1.44,.19v12.67h-5.09v-9.92c-.1,.1-.19,.13-.32,.19-.13,1.95-.54,5.76-1.02,7.33-.83-.29-1.66-.58-3.74-.93,.7-2.18,1.09-5.66,1.09-7.62l4,.32v-1.47c-1.02,.1-1.22,.13-3.04,.29-.22,.54-.32,.74-.58,.74-.35,0-.45-.38-.48-.64l-.51-4.9c.67,.03,1.18,.03,2.4,.03,.22-.22,1.15-1.18,2.05-2.27-.32-.26-2.24-1.98-4.77-3.58l2.59-4.1c.42,.26,.54,.32,.96,.61,1.12-1.92,1.54-2.72,2.08-4.13l4.64,1.63c.29,.1,.54,.22,.54,.48,0,.51-.54,.48-1.02,.48-1.12,1.86-2.27,3.58-2.72,4.22,.1,.1,.51,.45,.61,.51,1.5-2.05,2.02-2.98,2.59-4.06l4.77,2.34Zm-6.5,8c1.47-.1,1.6-.1,2.5-.19-.16-.74-.22-.99-.58-2.11-.64,.77-1.57,1.92-1.92,2.3Zm5.25,4.83c.32,2.56,.67,4.19,.96,5.47-1.76,.42-2.62,.64-3.81,1.09-.42-2.53-.48-3.04-.67-5.82l3.52-.74Zm1.47-12.19c-.19,.26-.54,.26-1.02,.22-.54,.67-3.14,4.03-3.74,4.77l3.3-1.09c.45,1.6,1.02,3.71,1.47,6.78v-10.69Zm8.96,2.66v-3.1h-3.94v3.1h3.94Zm0,7.84v-3.36h-3.94v3.36h3.94Zm0,8.13v-3.62h-3.94v3.62h3.94Z" style="fill:#231815;"/><path d="M337.41,72.71h-14.72v-1.82c-1.76,1.31-3.04,2.14-4.99,3.14-1.15-2.24-2.27-3.52-3.42-4.64,4.61-1.92,9.18-4.93,12.48-10.37l6.75,.42c.22,0,.61,.03,.61,.38,0,.29-.35,.51-.61,.7,2.08,2.91,7.74,6.91,12.32,8.38-1.44,1.41-2.72,3.26-3.3,4.96-1.98-1.02-3.42-1.86-5.12-3.1v1.95Zm-12.74,14.94v1.09h-5.41v-14.27h21.5v14.27h-5.44v-1.09h-10.66Zm10.66-4.8v-3.58h-10.66v3.58h10.66Zm-1.44-14.75c-1.41-1.15-1.86-1.6-4-3.9-1.95,2.3-2.21,2.5-3.74,3.9h7.74Z" style="fill:#231815;"/></g></svg>